<svg xmlns="http://www.w3.org/2000/svg" viewBox="0 0 920 340" fill="none">
<path d="M34.156 245.294C45.2747 224.594 54.4786 195.878 61.7677 159.145C69.0569 122.413 73.3211 92.2681 74.5603 68.7108C74.1624 61.2176 77.0576 54.5766 81.4381 48.0052C85.1928 42.3726 87.0703 41.4338 91.7637 37.6787C95.5184 35.8012 99.273 33.9236 104 33.4672C107.965 33.0842 113.259 31.28 116.592 38.7522L139.005 174.037L194.079 58.1408C196.831 53.395 201.588 46.1277 204.404 42.3726C207.22 38.6175 214.162 35.8399 214.729 35.8011C218.484 33.9236 234.441 32.9848 239.135 36.5568L242.889 39.5562L245.705 43.3113C247.507 44.6695 247.401 49.6099 247.571 52.1051C247.687 53.8063 247.426 55.8182 246.787 58.1408C238.602 83.426 231.592 108.403 225.758 133.072C220.037 157.733 216.192 176.512 214.225 189.408C211.802 205.64 211.04 220.334 211.938 233.49C212.945 248.234 212.929 247.994 209.697 258.565L208.08 262.44L205.591 267.315C205.591 267.315 202.973 270.316 202.101 271.317C201.228 272.317 196.92 273.827 196.92 273.827C181.644 274.87 172.31 262.974 170.727 243.142C170.233 222.552 179.513 175.77 198.568 102.797L151.255 215.758C145.41 225.273 139.426 230.24 133.303 230.658C132.622 230.705 131.995 230.69 131.42 230.616C124.538 229.946 119.753 225.773 117.064 218.094L101.211 143.632C98.1988 169.589 93.9272 192.955 88.3963 213.729C82.8654 234.503 85.3541 242.596 72.0242 267.832L67.863 275.783L65.3094 279.721L62.0041 282.702C52.5824 286.237 47.1231 284.532 41.8972 281.321C36.3855 277.934 34.3389 273.825 32.6322 270.523C31.039 267.213 30.1765 264.595 30.0448 262.666C29.7272 258.016 31.0976 252.226 34.156 245.294Z" fill="#6B4423"/>
<path d="M254.99 304.959C258.034 304.959 260.837 302.396 263.4 297.269C266.124 292.302 268.687 285.733 271.09 277.562C267.085 278.523 263.4 279.485 260.036 280.446C256.672 281.567 253.788 282.689 251.385 283.81C248.982 285.092 247.06 286.534 245.618 288.136C244.337 289.739 243.696 291.661 243.696 293.904C243.696 295.827 244.096 297.429 244.897 298.711C245.859 300.153 246.9 301.354 248.021 302.316C249.303 303.277 250.584 303.918 251.866 304.238C253.148 304.719 254.189 304.959 254.99 304.959ZM278.299 257.675C278.94 254.951 279.652 250.828 280.436 247.026C281.374 242.474 281.833 241.46 282.313 238.577C278.308 243.543 270.77 248.803 265.803 251.847C260.837 254.891 255.31 256.413 249.223 256.413C244.577 256.413 240.652 255.532 237.448 253.77C234.404 252.007 231.921 249.604 229.999 246.56C228.237 243.516 226.955 239.991 226.154 235.986C225.353 231.82 224.952 227.494 224.952 223.008C224.952 217.4 225.513 211.632 226.635 205.704C227.596 199.776 228.717 194.249 229.999 189.122C231.441 183.835 232.802 179.108 234.084 174.943C235.526 170.777 236.567 167.733 237.208 165.81C239.451 159.081 242.655 154.275 246.82 151.391C251.145 148.507 255.47 147.065 259.796 147.065C263.961 147.065 263.961 147.545 267.005 149.949C270.049 152.192 271.571 155.156 271.571 158.841C271.571 160.924 271.01 163.006 269.888 165.089C269.408 166.051 268.206 168.774 266.284 173.26C264.362 177.586 262.279 182.553 260.036 188.161C257.954 193.608 256.031 199.136 254.269 204.743C252.667 210.191 251.866 214.596 251.866 217.961C251.866 219.884 251.64 222.287 255.092 225.434C256.357 226.587 258.023 226.372 259.785 226.372C261.862 226.372 264.281 224.85 266.524 222.287C268.767 219.723 270.93 216.439 273.012 212.434C275.255 208.268 277.338 203.702 279.26 198.735C281.343 193.608 283.105 188.641 284.547 183.835C286.149 179.028 287.51 174.622 288.632 170.617C289.753 166.451 290.554 163.247 291.035 161.004C291.996 156.197 294.079 152.753 297.283 150.67C300.487 148.427 304.171 147.305 308.336 147.305C313.623 147.305 318.028 148.827 321.553 151.871C325.237 154.915 327.08 159.161 327.08 164.609C327.08 167.653 326.679 171.818 325.878 177.106C325.077 182.233 324.036 188.08 322.754 194.649C321.473 201.058 319.951 207.947 318.189 215.317C316.427 222.687 314.584 229.977 312.662 237.187C319.711 231.099 318.429 233.903 322.754 226.372C327.08 218.842 326.806 221.235 330.17 213.064C330.971 211.302 332.093 210.02 333.535 209.219C335.137 208.418 336.739 208.018 338.341 208.018C340.423 208.018 342.266 208.578 343.868 209.7C345.63 210.821 346.511 212.504 346.511 214.747C346.511 215.388 346.431 215.868 346.271 216.189C344.188 226.282 345.423 224.85 341.738 232.381C338.054 239.911 340.857 236.867 336.211 242.474C331.565 248.082 326.519 252.808 321.072 256.654C315.786 260.499 310.339 263.703 304.732 266.267C303.771 269.952 302.81 273.316 301.848 276.36C300.887 279.565 300.006 282.529 299.205 285.252C295.841 295.506 292.557 303.838 289.353 310.246C286.149 316.815 282.785 321.862 279.26 325.387C275.896 329.072 272.372 331.555 268.687 332.837C265.002 334.279 260.997 335 256.672 335C250.424 335 244.977 333.959 240.332 331.876C235.686 329.793 231.921 327.069 229.038 323.705C225.994 320.34 225.914 317.917 224.472 313.431C223.031 309.105 222.31 304.619 222.31 299.972C222.31 292.602 223.912 286.674 227.116 282.188C230.32 277.862 234.565 274.257 239.851 271.374C245.138 268.49 251.146 266.006 257.874 263.923C264.602 262.001 271.411 259.918 278.299 257.675Z" fill="#6B4423"/>
<path d="M428.949 227.003C431.192 227.003 433.514 225.561 435.917 222.677C438.32 219.794 440.643 216.509 442.886 212.824C445.129 209.139 447.051 205.454 448.653 201.769C450.416 198.084 451.617 195.521 452.258 194.079C453.059 192.316 454.18 191.034 455.622 190.233C457.224 189.432 458.826 189.032 460.428 189.032C462.511 189.032 464.353 189.593 465.955 190.714C467.717 191.836 468.598 193.518 468.598 195.761C468.598 196.081 468.518 196.322 468.358 196.482C468.358 196.642 468.358 196.882 468.358 197.203C467.076 203.451 465.074 210.1 462.35 217.15C459.787 224.2 456.423 230.688 452.258 236.616C448.253 242.544 443.527 247.511 438.08 251.517C432.794 255.362 426.786 257.284 420.058 257.284C415.572 257.284 411.727 256.403 408.523 254.641C405.319 252.718 402.676 250.155 400.593 246.95C398.511 243.586 396.989 239.661 396.028 235.174C395.067 230.528 394.586 225.481 394.586 220.034C394.586 213.946 395.147 207.457 396.268 200.567C397.389 193.678 398.831 186.709 400.593 179.659C402.356 172.609 404.358 165.56 406.601 158.51C408.844 151.301 411.167 144.491 413.57 138.083H402.275C398.911 138.083 396.108 136.881 393.865 134.478C391.462 132.074 390.261 129.271 390.261 126.066C390.261 122.702 391.462 119.898 393.865 117.655C396.108 115.252 398.911 114.05 402.275 114.05H423.182C424.944 109.884 426.466 106.279 427.747 103.235C429.189 100.031 430.31 97.5475 431.111 95.7851C433.835 90.1775 437.279 86.1721 441.444 83.7688C445.61 81.2053 449.775 79.9236 453.94 79.9236C458.105 79.9236 461.71 81.0451 464.753 83.2882C467.957 85.371 469.559 88.2549 469.559 91.9399C469.559 94.3432 468.758 96.9067 467.156 99.6304C466.355 100.912 465.394 102.755 464.273 105.158C463.151 107.561 461.79 110.525 460.188 114.05H462.35C465.715 114.05 468.518 115.252 470.761 117.655C473.164 119.898 474.365 122.702 474.365 126.066C474.365 129.271 473.164 132.074 470.761 134.478C468.518 136.881 465.715 138.083 462.35 138.083H450.095C447.212 145.453 444.248 153.143 441.204 161.154C438.32 169.005 435.677 176.695 433.274 184.225C430.871 191.595 428.869 198.404 427.267 204.653C425.825 210.741 425.104 215.708 425.104 219.553C425.104 220.995 425.264 222.597 425.585 224.36C426.065 226.122 427.187 227.003 428.949 227.003Z" fill="#6B4423"/>
<path d="M486.504 227.244C488.587 227.244 490.91 226.443 493.473 224.84C496.036 223.078 498.599 220.835 501.163 218.111C503.886 215.388 506.529 212.424 509.092 209.219C511.816 205.855 514.299 202.49 516.542 199.125C517.663 194.159 518.784 189.512 519.906 185.187C521.187 180.861 522.389 177.096 523.51 173.891C518.384 175.013 513.258 177.576 508.131 181.582C503.165 185.427 498.599 189.833 494.434 194.8C490.429 199.766 487.145 204.733 484.582 209.7C482.019 214.506 480.737 218.352 480.737 221.236C480.737 222.998 481.218 224.44 482.179 225.561C483.3 226.683 484.742 227.244 486.504 227.244ZM534.324 153.223C536.567 151.461 538.89 150.179 541.293 149.378C543.696 148.417 546.018 147.936 548.261 147.936C552.426 147.936 556.031 149.138 559.075 151.541C562.279 153.784 563.881 156.748 563.881 160.433C563.881 162.516 563.32 164.599 562.199 166.681C561.718 167.643 560.517 170.366 558.594 174.853C556.672 179.178 554.589 184.145 552.346 189.753C550.264 195.36 548.341 201.048 546.579 206.816C544.977 212.424 544.176 217.07 544.176 220.755C544.176 222.037 544.336 223.398 544.657 224.84C545.137 226.282 546.179 227.003 547.781 227.003C549.863 227.003 552.106 225.561 554.509 222.677C557.072 219.794 559.395 216.509 561.478 212.824C563.721 209.139 565.643 205.454 567.245 201.769C569.007 198.084 570.209 195.521 570.849 194.079C571.65 192.316 572.772 191.034 574.214 190.233C575.655 189.432 577.257 189.032 579.02 189.032C581.102 189.032 582.944 189.593 584.546 190.714C586.309 191.836 587.19 193.518 587.19 195.761C587.19 196.402 587.11 196.882 586.949 197.203C585.828 203.451 583.906 210.1 581.182 217.15C578.459 224.2 575.015 230.688 570.849 236.616C566.844 242.544 562.119 247.511 556.672 251.517C551.385 255.362 545.378 257.284 538.649 257.284C532.401 257.284 527.355 255.602 523.51 252.238C519.826 248.713 517.182 244.147 515.581 238.539C510.294 243.986 504.286 248.472 497.558 251.997C490.83 255.522 483.781 257.284 476.412 257.284C471.285 257.284 466.72 256.403 462.715 254.641C458.87 252.878 455.586 250.475 452.862 247.431C450.299 244.387 448.377 240.782 447.095 236.616C445.653 232.451 444.932 228.045 444.932 223.398C444.932 215.388 446.855 206.976 450.7 198.164C454.384 189.352 459.35 181.261 465.598 173.891C471.846 166.361 479.055 160.193 487.225 155.386C495.556 150.419 504.126 147.936 512.937 147.936C516.301 147.936 519.906 148.337 523.751 149.138C527.595 149.939 531.12 151.301 534.324 153.223Z" fill="#6B4423"/>
<path d="M566.563 223.879C566.563 218.271 567.124 212.504 568.246 206.576C569.207 200.648 570.328 195.12 571.61 189.993C573.052 184.706 574.413 179.979 575.695 175.814C577.137 171.648 578.178 168.604 578.819 166.681C581.062 159.952 584.265 155.146 588.431 152.262C592.756 149.378 597.081 147.936 601.407 147.936C605.572 147.936 609.177 149.138 612.22 151.541C615.264 153.784 616.786 156.748 616.786 160.433C616.786 162.516 616.225 164.599 615.104 166.681C614.623 167.643 613.422 170.366 611.499 174.853C609.577 179.178 607.494 184.145 605.252 189.753C603.169 195.36 601.247 201.048 599.484 206.816C597.882 212.424 597.081 217.07 597.081 220.755C597.081 222.037 597.242 223.398 597.562 224.84C598.043 226.282 599.084 227.003 600.686 227.003C602.769 227.003 605.011 225.561 607.414 222.677C609.978 219.794 612.3 216.509 614.383 212.824C616.626 209.139 618.548 205.454 620.15 201.769C621.912 198.084 623.114 195.521 623.755 194.079C624.556 192.316 625.677 191.034 627.119 190.233C628.721 189.432 630.323 189.032 631.925 189.032C634.168 189.032 636.09 189.593 637.692 190.714C639.294 191.836 640.095 193.518 640.095 195.761C640.095 196.402 640.015 196.882 639.855 197.203C638.733 203.451 636.811 210.1 634.088 217.15C631.364 224.2 627.92 230.688 623.755 236.616C619.75 242.544 615.024 247.511 609.577 251.517C604.29 255.362 598.283 257.284 591.555 257.284C587.229 257.284 583.464 256.403 580.261 254.641C577.057 252.878 574.413 250.475 572.331 247.431C570.408 244.387 568.966 240.862 568.005 236.857C567.044 232.691 566.563 228.365 566.563 223.879ZM603.329 138.323C597.883 138.323 593.877 136.4 591.314 132.555C588.911 128.71 587.71 124.624 587.71 120.298C587.71 115.011 589.312 110.926 592.516 108.042C595.88 104.998 600.125 103.476 605.252 103.476C610.698 103.476 615.184 105.078 618.708 108.282C622.393 111.326 624.235 115.091 624.235 119.577C624.235 122.141 623.595 124.624 622.313 127.028C621.192 129.271 619.59 131.273 617.507 133.036C615.585 134.638 613.342 135.92 610.779 136.881C608.376 137.842 605.892 138.323 603.329 138.323Z" fill="#6B4423"/>
<path d="M621.04 220.034C621.04 212.984 621.761 205.374 623.203 197.203C624.645 189.032 626.487 180.861 628.73 172.69C631.133 164.358 633.696 156.187 636.419 148.176C639.303 140.005 642.106 132.555 644.83 125.826C647.553 118.937 650.036 112.928 652.279 107.801C654.522 102.514 656.284 98.5088 657.566 95.7851C660.289 90.1775 663.733 86.1721 667.899 83.7688C672.064 81.2053 676.229 79.9236 680.394 79.9236C684.559 79.9236 688.164 81.0451 691.208 83.2882C694.412 85.371 696.014 88.2549 696.014 91.9399C696.014 94.3432 695.213 96.9067 693.611 99.6304C692.329 101.713 690.407 105.558 687.843 111.166C685.28 116.774 682.397 123.343 679.193 130.873C676.149 138.403 672.945 146.494 669.581 155.146C666.377 163.797 663.413 172.209 660.69 180.38C658.126 188.551 655.964 196.081 654.201 202.971C652.439 209.86 651.558 215.388 651.558 219.553C651.558 220.995 651.718 222.597 652.039 224.36C652.519 226.122 653.641 227.003 655.403 227.003C657.646 227.003 659.969 225.561 662.372 222.677C664.775 219.794 667.097 216.509 669.34 212.824C671.583 209.139 673.506 205.454 675.107 201.769C676.87 198.084 678.071 195.521 678.712 194.079C679.513 192.316 680.634 191.034 682.076 190.233C683.678 189.432 685.28 189.032 686.882 189.032C688.965 189.032 690.807 189.593 692.409 190.714C694.171 191.836 695.052 193.518 695.052 195.761C695.052 196.081 694.972 196.322 694.812 196.482C694.812 196.642 694.812 196.882 694.812 197.203C693.53 203.451 691.528 210.1 688.805 217.15C686.241 224.2 682.877 230.688 678.712 236.616C674.707 242.544 669.981 247.511 664.534 251.517C659.248 255.362 653.24 257.284 646.512 257.284C642.026 257.284 638.181 256.403 634.977 254.641C631.773 252.718 629.13 250.155 627.048 246.95C624.965 243.586 623.443 239.661 622.482 235.174C621.521 230.528 621.04 225.481 621.04 220.034Z" fill="#6B4423"/>
<path d="M672.594 219.313C672.594 217.07 672.834 214.266 673.315 210.901C673.635 207.377 674.356 204.012 675.477 200.808C676.439 197.603 677.88 194.88 679.803 192.637C681.725 190.233 684.208 189.032 687.252 189.032C689.655 189.032 691.818 190.073 693.74 192.156C695.662 194.239 696.624 197.924 696.624 203.211C696.624 207.216 697.184 210.741 698.306 213.785C699.587 216.83 701.189 219.393 703.112 221.476C705.034 223.398 707.197 224.84 709.6 225.802C712.003 226.763 714.406 227.244 716.809 227.244C720.173 227.244 723.057 226.443 725.46 224.84C727.863 223.238 729.064 221.155 729.064 218.592C729.064 216.509 728.183 214.747 726.421 213.305C724.819 211.703 722.656 210.18 719.933 208.739C717.37 207.297 714.566 205.855 711.522 204.413C708.639 202.81 705.835 200.968 703.112 198.885C700.549 196.642 698.386 193.999 696.624 190.954C695.022 187.75 694.221 183.905 694.221 179.419C694.221 173.971 695.502 169.245 698.066 165.239C700.629 161.234 703.993 157.95 708.158 155.386C712.323 152.823 716.969 150.98 722.095 149.859C727.222 148.577 732.348 147.936 737.475 147.936C741.8 147.936 746.125 148.417 750.451 149.378C754.776 150.179 758.701 151.621 762.225 153.704C765.91 155.787 768.874 158.43 771.117 161.635C773.359 164.839 774.481 168.844 774.481 173.651C774.481 180.06 772.638 184.866 768.954 188.07C765.269 191.275 761.184 192.877 756.699 192.877C752.533 192.877 748.689 191.515 745.164 188.791C741.64 186.068 739.237 181.902 737.955 176.294C737.955 175.654 736.914 175.333 734.831 175.333C732.749 175.333 730.346 175.734 727.622 176.535C725.059 177.176 723.778 177.897 723.778 178.698C723.778 179.659 725.94 181.341 730.266 183.745C734.591 186.148 739.317 189.272 744.443 193.117C749.73 196.963 754.536 201.529 758.861 206.816C763.187 212.103 765.349 218.191 765.349 225.081C765.349 230.208 763.988 234.774 761.264 238.779C758.541 242.785 755.017 246.149 750.691 248.873C746.366 251.597 741.399 253.68 735.793 255.122C730.346 256.563 724.739 257.284 718.972 257.284C713.204 257.284 707.517 256.483 701.91 254.881C696.303 253.279 691.337 250.956 687.012 247.912C682.686 244.707 679.242 240.782 676.679 236.136C673.955 231.329 672.594 225.722 672.594 219.313Z" fill="#6B4423"/>
<path d="M820.513 218.941C818.765 218.716 816.899 218.152 814.916 217.25C813.112 216.21 811.458 214.624 809.956 212.492C808.634 210.221 807.652 207.187 807.01 203.389C806.39 199.432 806.468 194.434 807.246 188.396C807.738 184.582 808.693 179.051 810.111 171.803C811.688 164.576 813.886 156.297 816.703 146.967C819.52 137.638 822.986 127.665 827.1 117.049C831.234 106.274 836.163 95.601 841.886 85.0307C844.427 80.3504 848.642 77.0973 854.531 75.2716C860.44 73.2869 866.334 72.6734 872.213 73.431C876.979 74.0453 881.236 75.4824 884.983 77.7423C888.73 80.0021 890.378 82.88 889.928 86.3759C889.702 88.1238 888.721 90.0974 886.984 92.2967C879.313 102.939 872.355 114.32 866.11 126.438C859.884 138.398 854.536 149.824 850.063 160.717C845.611 171.451 842.038 181.006 839.343 189.382C836.808 197.779 835.325 203.646 834.895 206.983C834.24 212.068 832.429 215.469 829.461 217.186C826.515 218.745 823.532 219.33 820.513 218.941ZM811.425 257.509C806.022 256.813 802.296 254.394 800.245 250.253C798.353 246.132 797.684 241.926 798.237 237.636C798.912 232.392 801.023 228.545 804.569 226.094C808.295 223.505 812.7 222.538 817.784 223.193C823.186 223.89 827.431 226.052 830.517 229.68C833.782 233.171 835.128 237.14 834.555 241.59C834.227 244.132 833.274 246.513 831.696 248.733C830.297 250.814 828.452 252.596 826.162 254.077C824.05 255.421 821.662 256.405 818.997 257.031C816.491 257.677 813.967 257.837 811.425 257.509Z" fill="#6B4423"/>
</svg>
