<svg xmlns="http://www.w3.org/2000/svg" viewBox="0 0 280 320">
  <rect width="280" height="320" rx="64" fill="#FAF6F0"/>
  <g transform="translate(15, 25)">
    <path d="M34.156 245.294C45.2747 224.594 54.4786 195.878 61.7677 159.145C69.0569 122.413 73.3211 92.2681 74.5603 68.7108C74.1624 61.2176 77.0576 54.5766 81.4381 48.0052C85.1928 42.3726 87.0703 41.4338 91.7637 37.6787C95.5184 35.8012 99.273 33.9236 104 33.4672C107.965 33.0842 113.259 31.28 116.592 38.7522L139.005 174.037L194.079 58.1408C196.831 53.395 201.588 46.1277 204.404 42.3726C207.22 38.6175 214.162 35.8399 214.729 35.8011C218.484 33.9236 234.441 32.9848 239.135 36.5568L242.889 39.5562L245.705 43.3113C247.507 44.6695 247.401 49.6099 247.571 52.1051C247.687 53.8063 247.426 55.8182 246.787 58.1408C238.602 83.426 231.592 108.403 225.758 133.072C220.037 157.733 216.192 176.512 214.225 189.408C211.802 205.64 211.04 220.334 211.938 233.49C212.945 248.234 212.929 247.994 209.697 258.565L208.08 262.44L205.591 267.315C205.591 267.315 202.973 270.316 202.101 271.317C201.228 272.317 196.92 273.827 196.92 273.827C181.644 274.87 172.31 262.974 170.727 243.142C170.233 222.552 179.513 175.77 198.568 102.797L151.255 215.758C145.41 225.273 139.426 230.24 133.303 230.658C132.622 230.705 131.995 230.69 131.42 230.616C124.538 229.946 119.753 225.773 117.064 218.094L101.211 143.632C98.1988 169.589 93.9272 192.955 88.3963 213.729C82.8654 234.503 85.3541 242.596 72.0242 267.832L67.863 275.783L65.3094 279.721L62.0041 282.702C52.5824 286.237 47.1231 284.532 41.8972 281.321C36.3855 277.934 34.3389 273.825 32.6322 270.523C31.039 267.213 30.1765 264.595 30.0448 262.666C29.7272 258.016 31.0976 252.226 34.156 245.294Z" fill="#6B4423"/>
  </g>
</svg>
